<svg xmlns="http://www.w3.org/2000/svg" viewBox="0 0 576 576"><defs><style>.cls-1{fill:#f2dc7c;}.cls-2{fill:#fff;}.cls-3{fill:none;stroke:#fff;stroke-linecap:round;stroke-miterlimit:10;stroke-width:7px;}</style></defs><title>Artboard 12</title><g id="feature-effect"><circle class="cls-1" cx="288" cy="288.49" r="267.83"/><rect class="cls-2" x="296.86" y="123.75" width="44.65" height="404.61" rx="16.07" ry="16.07" transform="translate(-137.07 321.2) rotate(-45)"/><path class="cls-1" d="M226.44,175.16h3.08a10.5,10.5,0,0,1,10.5,10.5V295.74a0,0,0,0,1,0,0H215.94a0,0,0,0,1,0,0V185.67A10.5,10.5,0,0,1,226.44,175.16Z" transform="translate(-99.72 230.17) rotate(-45)"/><line class="cls-3" x1="181.59" y1="113.93" x2="181.59" y2="139.93"/><line class="cls-3" x1="180.92" y1="97.76" x2="180.92" y2="140.26"/><line class="cls-3" x1="247.42" y1="124.01" x2="216.17" y2="155.26"/><line class="cls-3" x1="273.92" y1="190.51" x2="230.67" y2="190.51"/><line class="cls-3" x1="181.17" y1="279.01" x2="181.17" y2="240.26"/><line class="cls-3" x1="115.92" y1="255.51" x2="146.17" y2="225.26"/><line class="cls-3" x1="88.92" y1="190.26" x2="131.67" y2="190.26"/><line class="cls-3" x1="115.67" y1="124.76" x2="145.92" y2="155.01"/></g></svg>