<svg xmlns="http://www.w3.org/2000/svg" viewBox="0 0 576 576"><defs><style>.cls-1{fill:#fff;}.cls-2{fill:#f2dc7c;}</style></defs><title>Artboard 14</title><g id="feature-aninmate"><circle class="cls-1" cx="266.11" cy="158.8" r="44.67"/><path class="cls-2" d="M286,16.63c-147.92,0-267.83,119.91-267.83,267.83S138.13,552.29,286,552.29,553.87,432.38,553.87,284.46,434,16.63,286,16.63ZM370.26,229l-38.48,38.48a11.39,11.39,0,0,1-21.12,2.55L281.78,240v98.63l33.94,33.94a13.35,13.35,0,0,1,6.71,16v65.73a10,10,0,0,1-20,0V387.58L275.89,361,243.73,457a10,10,0,0,1-19-6.36l36.12-107.75a10,10,0,0,1,.89-5.24V316.36a10,10,0,0,1-3.33.8L242.34,329a10,10,0,0,1-11.85-16.11l11.06-8.13L212.72,275a11.31,11.31,0,0,1-.44-21.74l44-40.69A54.64,54.64,0,1,1,282.3,211c0,.22,0,.45,0,.67L320,251l36.07-36.07A10,10,0,1,1,370.26,229Z"/><path class="cls-2" d="M300.78,158.8a34.67,34.67,0,1,0-34.67,34.67A34.71,34.71,0,0,0,300.78,158.8Z"/><path class="cls-2" d="M259.11,294.17a10,10,0,0,1,2.67.32v-59.8L230,264.09Z"/></g></svg>