<svg xmlns="http://www.w3.org/2000/svg" viewBox="0 0 576 576"><defs><style>.cls-1{fill:#fff;}.cls-2{fill:#f2dc7c;}</style></defs><title>Artboard 16</title><g id="feature-montage"><rect class="cls-1" x="83.76" y="145.79" width="206.57" height="284.42"/><rect class="cls-1" x="291.67" y="145.79" width="206.57" height="284.42"/><path class="cls-2" d="M300.93,418.33H489V157.67h-188Zm103-14.85H382.86V373H404Zm-77.14-51V224H461.67V352.51Zm136.11,48.63H441.83V370.62h21.12ZM441.83,174.28h21.12v30.51H441.83Zm-59,0H404v30.51H382.86Zm-56.44,0h21.12v30.51H326.42Zm0,198.69h21.12v30.51H326.42Z"/><path class="cls-2" d="M93,418.33h188V157.67H93Zm103-14.85H175V373h21.12Zm-77.14-51V224H253.76V352.51ZM255,401.13H233.92V370.62H255ZM233.92,174.28H255v30.51H233.92Zm-59,0h21.12v30.51H175Zm-56.44,0h21.12v30.51H118.51Zm0,198.69h21.12v30.51H118.51Z"/><path class="cls-2" d="M287,20.17C139.1,20.17,19.19,140.08,19.19,288S139.1,555.83,287,555.83,554.84,435.92,554.84,288,434.93,20.17,287,20.17Zm5.81,412.54H81.26V143.29H500.74V432.71Z"/><rect class="cls-1" x="275.83" y="205.72" width="26.15" height="71.59" transform="translate(-86.16 275.03) rotate(-45)"/><rect class="cls-1" x="279.69" y="211.21" width="25.58" height="71.59" transform="translate(324.64 628.49) rotate(-135)"/><rect class="cls-1" x="277.06" y="296.14" width="19.91" height="62.28" transform="translate(455 -74.31) rotate(63.95)"/></g></svg>