<svg xmlns="http://www.w3.org/2000/svg" viewBox="0 0 576 576"><defs><style>.cls-1{fill:#f2dc7c;}</style></defs><title>Artboard 13</title><g id="feature-text"><path class="cls-1" d="M288.49,20.67c-147.92,0-267.83,119.91-267.83,267.83S140.58,556.32,288.49,556.32,556.32,436.41,556.32,288.49,436.41,20.67,288.49,20.67ZM246.6,102.37h27.23v-27H287v27h27.23v13.39H287V143h-13.2V115.76H246.6ZM390.39,286q-7-32-17.87-41.7t-45.61-9.67H304.65V439.28q0,23.12,7.23,28.65t31.64,7.28v7.42H226.92v-7.42q25.39-1.94,31.64-8.36t6.25-32.27v-200H242.35q-33.21,0-45.21,9.57T179.07,286H169.3l2.34-68H397.82L400,286Z"/></g></svg>