<svg xmlns="http://www.w3.org/2000/svg" viewBox="0 0 576 576"><defs><style>.cls-1{fill:#fff;}.cls-2{fill:#f2dc7c;}</style></defs><title>Artboard 15</title><g id="feature-music"><circle class="cls-1" cx="114.36" cy="286.26" r="43.62"/><circle class="cls-1" cx="324.78" cy="286.26" r="43.62"/><rect class="cls-1" x="157.09" y="109.12" width="210.07" height="56.97"/><circle class="cls-1" cx="410.57" cy="425.2" r="43.62"/><polygon class="cls-2" points="357.16 119.12 167.09 119.12 167.09 156.09 357.16 156.09 357.16 135.83 357.16 119.12"/><path class="cls-2" d="M357.16,277.24a33.62,33.62,0,1,0,0,18Z"/><path class="cls-2" d="M442.95,416.19a33.62,33.62,0,1,0,0,18Z"/><path class="cls-2" d="M146.2,275.49a33.62,33.62,0,1,0,0,21.54Z"/><path class="cls-2" d="M288,24.05C140.08,24.05,20.17,144,20.17,291.88S140.08,559.71,288,559.71,555.83,439.8,555.83,291.88,435.92,24.05,288,24.05ZM271.16,286.26a53.58,53.58,0,0,1,86-42.7V176.09h-191v96.47a53.59,53.59,0,0,1,0,27.4v1.43a10,10,0,0,1-3.14,7.26,53.64,53.64,0,1,1-16.86-65.5V135.83a10,10,0,0,1,.89-4.11V99.12H377.16V274.83a53.35,53.35,0,0,1,0,22.86v3.7a10,10,0,0,1-4,8,53.61,53.61,0,0,1-102-23.13ZM462.95,440.33a10,10,0,0,1-4,8,53.65,53.65,0,1,1-16-65.83V274.77a10,10,0,0,1,20,0v139a53.35,53.35,0,0,1,0,22.85Z"/></g></svg>