<svg xmlns="http://www.w3.org/2000/svg" viewBox="0 0 576 576"><defs><style>.cls-1{fill:#f2dc7c;}</style></defs><title>Artboard 10</title><g id="feature-edit"><ellipse class="cls-1" cx="215.06" cy="460.58" rx="41.55" ry="27.08" transform="translate(-291.35 416.54) rotate(-60)"/><ellipse class="cls-1" cx="112.23" cy="292.33" rx="41.55" ry="27.08" transform="translate(-21.85 9.35) rotate(-4.35)"/><path class="cls-1" d="M285.45,20.17C137.53,20.17,17.62,140.08,17.62,288S137.53,555.83,285.45,555.83,553.28,435.92,553.28,288,433.37,20.17,285.45,20.17Zm230.49,228.2a115.72,115.72,0,0,1-80.21,46.55L308.13,309.47l-52.87,71.1a16.3,16.3,0,0,1,2.15,4.59c1.16,4-1,8.32-3.25,12.14l-3.24,5.61.2.11c11.81,6.82,39.36,29.48,10,80.4-17.85,30.92-52,46.9-75.72,34.07-8.31-4.49-14.54-9-19.06-13.53a38.07,38.07,0,0,0-3.77-3.26,24.52,24.52,0,0,1-6.26-31.59l55.57-96.25c4.16-7.21,10.22-9.1,17-7.91l31.46-50-55.91,6.38c-1.85,6.62-6.18,11.27-14.48,11.9L79.08,341.62A24.52,24.52,0,0,1,53.32,322.3a38,38,0,0,0-1.3-4.8c-2.13-6-3.49-13.6-3.94-23C46.77,267.53,76,243.66,111.56,241c58.63-4.46,67.13,30.18,68.17,43.78a2,2,0,0,1,0,.23l6.46-.49c4.4-.34,9.27-.44,12.35,2.33a16.3,16.3,0,0,1,3.21,3.93l84-16.3,67-106.58a115.72,115.72,0,0,1,76.69-52.16l17.1-3.2a3.73,3.73,0,0,1,3.68,5.9l-107.86,145,180.13-35a3.73,3.73,0,0,1,3.72,5.87Z"/><circle class="cls-1" cx="298" cy="292.33" r="10.84"/></g></svg>