<svg xmlns="http://www.w3.org/2000/svg" viewBox="0 0 576 576"><defs><style>.cls-1{fill:#f2dc7c;}.cls-2{fill:#fff;}</style></defs><title>Artboard 8</title><g id="feature-upload"><polygon class="cls-1" points="209.94 201.85 246.25 201.67 245.86 265.03 284.05 265.03 284.32 201.5 322.25 201.5 265.09 135.01 209.94 201.85"/><path class="cls-1" d="M288,20.17C140.08,20.17,20.17,140.08,20.17,288S140.08,555.83,288,555.83,555.83,435.92,555.83,288,435.92,20.17,288,20.17ZM165.32,200A100.21,100.21,0,1,1,265.53,300.23,100.21,100.21,0,0,1,165.32,200ZM292.89,534.56,202.32,444,377.18,269.12l90.58,90.58Z"/><rect class="cls-1" x="327.25" y="321.49" width="85.4" height="93.4" transform="translate(368.7 -153.75) rotate(45)"/><circle class="cls-1" cx="288.49" cy="449.64" r="35.58" transform="translate(-233.45 335.69) rotate(-45)"/><circle class="cls-2" cx="288.49" cy="449.64" r="18.68" transform="translate(-233.45 335.69) rotate(-45)"/></g></svg>