<svg xmlns="http://www.w3.org/2000/svg" viewBox="0 0 576 576"><defs><style>.cls-1,.cls-2{fill:#f2dc7c;}.cls-2{stroke:#fff;stroke-linecap:round;stroke-miterlimit:10;stroke-width:5px;}</style></defs><title>Artboard 9</title><g id="feature-adjust"><path class="cls-1" d="M288,20.17C140.08,20.17,20.17,140.08,20.17,288S140.08,555.83,288,555.83,555.83,435.92,555.83,288,435.92,20.17,288,20.17ZM477,368.88a58.41,58.41,0,0,1-58.41,58.41H157.41A58.41,58.41,0,0,1,99,368.88V207.3a58.41,58.41,0,0,1,58.41-58.41H418.59A58.41,58.41,0,0,1,477,207.3Z"/><circle class="cls-2" cx="279.87" cy="323.04" r="70.42" transform="translate(-65.85 71.72) rotate(-13.08)"/><line class="cls-2" x1="219" y1="291.14" x2="248.35" y2="309.42"/><circle class="cls-1" cx="139.67" cy="364.05" r="3.04"/><circle class="cls-1" cx="135.54" cy="304" r="4.69"/><circle class="cls-1" cx="152.94" cy="249.84" r="6.33"/><circle class="cls-1" cx="192.16" cy="204.77" r="7.96"/><circle class="cls-1" cx="255.45" cy="178.71" r="9.21"/><circle class="cls-1" cx="334.81" cy="187.63" r="11.28"/></g></svg>