<svg xmlns="http://www.w3.org/2000/svg" viewBox="0 0 576 576"><defs><style>.cls-1{fill:#2c7aab;}</style></defs><title>Artboard 6</title><g id="home-edit"><path class="cls-1" d="M310.17,437.09a23.25,23.25,0,1,0,26.66,23.35A23.33,23.33,0,0,0,310.17,437.09Z"/><path class="cls-1" d="M259.6,220.31a39.68,39.68,0,1,0-36.33,36.33A39.69,39.69,0,0,0,259.6,220.31Z"/><path class="cls-1" d="M378,301.3a28.57,28.57,0,1,0,41.38,13.57A28.67,28.67,0,0,0,378,301.3Z"/><path class="cls-1" d="M288,20.17C140.08,20.17,20.17,140.08,20.17,288S140.08,555.83,288,555.83,555.83,435.92,555.83,288,435.92,20.17,288,20.17ZM191.89,329.69a12.16,12.16,0,0,1-17.64,6l-38.58-23.36A12.16,12.16,0,0,1,133,293.78l8.46-9.37-19.8-33.5L99,249.57a10.6,10.6,0,0,1-10-10.79l1-51.78a10.6,10.6,0,0,1,11.1-10.37l19.93.95,15.65-24.45L126.43,136a13.1,13.1,0,0,1,4.44-18l41.48-25.07a13.1,13.1,0,0,1,18.8,6l8.22,19,37.16-1L251.12,94a11.32,11.32,0,0,1,15.42-3.6l37.69,22.87a11.32,11.32,0,0,1,3.57,15.91l-12.58,19,21.52,41.08,23.92.32a11.76,11.76,0,0,1,11.55,12.87l-4.06,42.83a11.76,11.76,0,0,1-12.58,10.61l-21.27-1.59-21.52,36.19L305.4,309a10.23,10.23,0,0,1-3.62,14.8l-35.56,19a10.23,10.23,0,0,1-14.34-5.27l-9.48-24-45,2ZM477.63,357a7.37,7.37,0,0,1,2.49,10.68l-16.66,23.79a7.37,7.37,0,0,1-10.93,1.28l-13.9-12.36-28.27,15.88,1.08,10.93a8.76,8.76,0,0,1-9.38,9.59l-32.38-2.46a8.75,8.75,0,0,1-8.07-9.22l-.12.23-6.62,11.62L369,440.1l14-.74a6.89,6.89,0,0,1,7.25,7.08l-.72,25.2a6.89,6.89,0,0,1-6.94,6.69l-12.5-.11-11.18,22,8.1,10.3a6,6,0,0,1-1.54,8.79l-20.06,12.5a6,6,0,0,1-8.59-2.53l-6.47-13.69-26.23,2.88L301.47,527a7.13,7.13,0,0,1-10.08,4.19L267.94,519a7.13,7.13,0,0,1-2.31-10.74l4.59-5.8-12.87-18.82-13.26.08a6.21,6.21,0,0,1-6.24-5.93l-1.39-30.32a6.21,6.21,0,0,1,6.09-6.49l11.69-.22,8.2-14.9-6.72-9.63a7.68,7.68,0,0,1,1.9-10.68l23.29-16.27a7.68,7.68,0,0,1,11.22,2.79l5.54,10.79,21.69-2,7.64-14a6.63,6.63,0,0,1,8.88-2.7l22.92,11.91a6.62,6.62,0,0,1,3.55,5.49l1.95-7.13-23.61-15.08-15,6.48a7.63,7.63,0,0,1-9.91-3.69l-16.17-33.61a7.63,7.63,0,0,1,3.76-10.27l13.11-5.87,2.1-20.8L306.39,304a9.43,9.43,0,0,1-3-13l18.5-29.6a9.43,9.43,0,0,1,14-2.25l11.46,9.53L370.94,256l1.92-19.47a8.15,8.15,0,0,1,8.74-7.33l31.65,2.44a8.15,8.15,0,0,1,7.47,9.06L418.82,257,446,276.38l15.47-7.57a8.47,8.47,0,0,1,11.6,4.51l11.31,28.84a8.47,8.47,0,0,1-4.63,10.91L465.57,319l-2.06,30.24Z"/></g></svg>