<svg xmlns="http://www.w3.org/2000/svg" viewBox="0 0 576 576"><defs><style>.cls-1,.cls-3{fill:#f2dc7c;}.cls-2,.cls-4,.cls-5{fill:none;}.cls-2{stroke:#f2dc7c;stroke-width:6px;}.cls-2,.cls-3,.cls-4,.cls-5{stroke-miterlimit:10;}.cls-3,.cls-4,.cls-5{stroke:#316e95;stroke-linecap:round;}.cls-3,.cls-4{stroke-width:10px;}.cls-5{stroke-width:7px;}</style></defs><title>Artboard 5</title><g id="home-magnify"><path class="cls-1" d="M288,13.77C138.49,13.77,17.29,135,17.29,284.49S138.49,555.2,288,555.2,558.71,434,558.71,284.49,437.51,13.77,288,13.77ZM401.07,416H133V158.32H401.07Z"/><line class="cls-2" x1="222.64" y1="159.45" x2="222.64" y2="415.3"/><line class="cls-2" x1="312.9" y1="160.81" x2="312.9" y2="415.61"/><line class="cls-2" x1="134.32" y1="337.91" x2="400.67" y2="337.91"/><line class="cls-2" x1="128.41" y1="247.65" x2="394.33" y2="247.65"/><circle class="cls-3" cx="347.14" cy="205.65" r="77.19"/><line class="cls-4" x1="392.58" y1="272.87" x2="482.84" y2="363.13"/><path class="cls-5" d="M285.45,247c21.54,0,30.23,3.1,29.25,27.12"/><path class="cls-5" d="M294.84,157.91c51,0,107.07,30.71,107.07,92.54"/></g></svg>