<svg xmlns="http://www.w3.org/2000/svg" viewBox="0 0 576 576"><defs><style>.cls-1{fill:#f2dc7c;}.cls-2{font-size:130px;fill:#fff;font-family:Times-Bold, Times;font-weight:700;}</style></defs><title>Artboard 2</title><g id="home-add"><path class="cls-1" d="M288,17.79C138.49,17.79,17.29,139,17.29,288.5S138.49,559.21,288,559.21,558.71,438,558.71,288.5,437.51,17.79,288,17.79ZM477.7,241.25,442,394.47c-2.88,12.34-15,21.19-29.15,21.19H135v-.38H113.51A15.7,15.7,0,0,1,98,399.36V174.86a13.07,13.07,0,0,1,12.85-13.24l104-.28a12.89,12.89,0,0,1,12,8.32h0a12.89,12.89,0,0,0,12,8.32h177.3A13.07,13.07,0,0,1,429,191.23V227h35.74C473.13,227,479.41,233.9,477.7,241.25Z"/><text class="cls-2" transform="translate(254.81 149.89)">+</text></g></svg>