<svg xmlns="http://www.w3.org/2000/svg" viewBox="0 0 576 576"><defs><style>.cls-1{fill:#f2dc7c;}</style></defs><title>Artboard 4</title><g id="home-aspect"><path class="cls-1" d="M200.29,254.38A25.37,25.37,0,1,0,172.95,227,25.46,25.46,0,0,0,200.29,254.38Z"/><path class="cls-1" d="M288,13.77C138.49,13.77,17.29,135,17.29,284.49S138.49,555.2,288,555.2,558.71,434,558.71,284.49,437.51,13.77,288,13.77ZM114.48,243l.67-33.11a6.78,6.78,0,0,1,7.1-6.63l12.74.61,10-15.63-6.62-11a8.38,8.38,0,0,1,2.84-11.5l26.52-16a8.38,8.38,0,0,1,12,3.84L185,165.68l23.76-.63,9.33-14.66a7.24,7.24,0,0,1,9.86-2.3l24.09,14.62a7.24,7.24,0,0,1,2.28,10.18l-8,12.17L260,211.33l15.3.2a7.52,7.52,0,0,1,7.38,8.23l-2.6,27.38a7.52,7.52,0,0,1-8,6.79l-13.6-1L244.72,276l8.07,11.8a6.54,6.54,0,0,1-2.31,9.46l-22.73,12.16a6.54,6.54,0,0,1-9.17-3.37l-6.06-15.36L183.76,292l-3.53,9.09A7.77,7.77,0,0,1,169,304.92L144.29,290a7.77,7.77,0,0,1-1.74-11.86l5.41-6L135.3,250.72l-14.44-.86A6.78,6.78,0,0,1,114.48,243Zm346.83,49.68-8.25,62.44a23.52,23.52,0,0,1-33,18.35L343.64,338.9a23.52,23.52,0,0,0-16.79-1L209.42,375.15a23.52,23.52,0,0,1-17.53-1.33L145.82,351a23.52,23.52,0,1,1,22.06-41.52l19.47,11.08a23.52,23.52,0,0,0,21,1.13l46-20a23.52,23.52,0,0,0,11.75-11.24L281,260.08a23.52,23.52,0,0,0,2.31-8.4l5-60.39a23.52,23.52,0,0,0-11.76-22.34l-22.8-13a23.52,23.52,0,0,1-3.08-38.73l6.52-5.25a23.52,23.52,0,0,1,25.11-2.8L324,129.61a23.52,23.52,0,0,1,12.9,17.64l9.74,65.26a23.52,23.52,0,0,0,14,18.13l86.7,37.31A23.52,23.52,0,0,1,461.31,292.63Z"/></g></svg>