<svg xmlns="http://www.w3.org/2000/svg" viewBox="0 0 576 576"><defs><style>.cls-1{fill:#231f20;}.cls-2,.cls-3{fill:#fff;}.cls-3,.cls-4,.cls-5{stroke:#231f20;}.cls-3,.cls-4{stroke-linejoin:round;}.cls-3{stroke-width:10px;}.cls-4,.cls-5{fill:none;stroke-width:20px;}.cls-5{stroke-miterlimit:10;}</style></defs><title>Artboard 1</title><g id="logo"><rect class="cls-1" x="46.51" y="160.25" width="482.98" height="307.75"/><rect class="cls-2" x="129.4" y="181.25" width="315.69" height="271.75"/><rect class="cls-2" x="62.74" y="199.79" width="49.08" height="36.82"/><rect class="cls-2" x="62.74" y="301.77" width="49.08" height="36.82"/><rect class="cls-2" x="62.74" y="400.61" width="49.08" height="36.82"/><rect class="cls-2" x="467.81" y="199.79" width="49.08" height="36.82"/><rect class="cls-2" x="467.81" y="301.77" width="49.08" height="36.82"/><rect class="cls-2" x="467.81" y="400.61" width="49.08" height="36.82"/><polygon class="cls-3" points="401.27 391.82 307.96 392.79 214.66 393.75 260.53 317.62 306.4 241.49 353.84 316.65 401.27 391.82"/><polygon class="cls-3" points="337.27 391.82 243.96 392.79 150.66 393.75 196.41 306.1 242.16 218.45 289.72 305.13 337.27 391.82"/><polygon class="cls-4" points="404.44 394.82 150.68 394.82 423.35 284.49 404.44 394.82"/><line class="cls-5" x1="248.02" y1="356.15" x2="268.02" y2="394.82"/><line class="cls-5" x1="306.62" y1="330.24" x2="338.61" y2="394.82"/><line class="cls-5" x1="354.69" y1="311.14" x2="401.35" y2="394.82"/></g></svg>