<svg id="Layer_1" data-name="Layer 1" xmlns="http://www.w3.org/2000/svg" viewBox="0 0 576 576"><defs><style>.cls-1{stroke:#fff;stroke-miterlimit:10;}.cls-2{fill:#f2dc7b;}</style></defs><title>social-facebook</title><path class="cls-1" d="M136.89,170.88h.23l0,0Z"/><path class="cls-2" d="M287.75,18.91C138.59,18.91,17.66,139.83,17.66,289S138.59,559.09,287.75,559.09,557.85,438.17,557.85,289,436.92,18.91,287.75,18.91Zm3.36,276.68.08.07h-.48Zm135.64-89.23h0v36.47s-29.63-.69-39.54-.69c-13.87,0-24.45,7.63-24.45,25.49v43.7h60.34l-8.32,60.34h-52V521.59h-61.9V371.14H247.81v-61.9h53.06V248.89c0-14.39,22.72-62.42,64.5-62.42h61.38V198.7h0Z"/></svg>