<svg id="Layer_1" data-name="Layer 1" xmlns="http://www.w3.org/2000/svg" viewBox="0 0 576 576"><defs><style>.cls-1{fill:none;stroke:#f2dc7b;stroke-miterlimit:10;stroke-width:20px;}.cls-2{fill:#f2dc7b;}</style></defs><title>social-twitter</title><circle class="cls-1" cx="290.06" cy="305.69" r="61.32"/><path class="cls-2" d="M287,20.09C138.49,20.09,18.09,140.49,18.09,289S138.49,557.91,287,557.91,555.91,437.51,555.91,289,435.51,20.09,287,20.09ZM418.84,363.94A60.23,60.23,0,0,1,358.79,424H227a60.23,60.23,0,0,1-60.06-60.06V232.12a60.24,60.24,0,0,1,34.22-54.17l-.4-1,2,.32A59.48,59.48,0,0,1,227,172.07H358.79a60.23,60.23,0,0,1,60.06,60.06Z"/><circle class="cls-2" cx="366.3" cy="215.98" r="12.81"/></svg>