<svg id="Layer_1" data-name="Layer 1" xmlns="http://www.w3.org/2000/svg" viewBox="0 0 576 576"><defs><style>.cls-1{fill:#f2dc7b;}</style></defs><title>social-instagram</title><path class="cls-1" d="M289,20.09C140.49,20.09,20.09,140.49,20.09,289S140.49,557.91,289,557.91,557.91,437.51,557.91,289,437.51,20.09,289,20.09ZM390.53,268.94c0,161.59-171.95,164.7-211.31,125.34,0,0,50.11.78,73-21.23-41.43-8.8-49.2-35.22-49.2-35.22h26.28c-42.92-9.91-42.86-45.4-42.86-45.4l23,.69c-8.29-3.13-35.65-42-15.19-62.5,39.36,47.13,87,50.76,98.4,48.68,0-78.21,72.18-62.54,84.42-41.63,6.73,0,30.56-11.2,30.56-11.2l-16.06,23.82L412,245.63S412,250,390.53,268.94Z"/></svg>