<svg id="tutorial-prepare" xmlns="http://www.w3.org/2000/svg" viewBox="0 0 576 576"><defs><style>.cls-1{fill:#2c7aab;}</style></defs><title>Artboard 19</title><path class="cls-1" d="M292,20.17C144.13,20.17,24.22,140.08,24.22,288S144.13,555.83,292,555.83,559.87,435.92,559.87,288,440,20.17,292,20.17Zm163.8,382H373.68v16h38.58a15,15,0,0,1,0,30H173.47a15,15,0,0,1,0-30h38.58v-16H129.89a46.26,46.26,0,0,1-46.21-46.21V182a46.26,46.26,0,0,1,46.21-46.21H455.84A46.26,46.26,0,0,1,502.05,182V355.94A46.26,46.26,0,0,1,455.84,402.15Z"/><rect class="cls-1" x="242.05" y="403.04" width="101.63" height="12.84"/><path class="cls-1" d="M302.33,382.15H455.84a26.24,26.24,0,0,0,26.21-26.21V182a26.24,26.24,0,0,0-26.21-26.21H129.89A26.24,26.24,0,0,0,103.68,182V355.94a26.24,26.24,0,0,0,26.21,26.21H302.33Zm-8.86-160a56.16,56.16,0,1,1-56.16,56.16A56.22,56.22,0,0,1,293.47,222.18Z"/><path class="cls-1" d="M293.47,324.49a46.16,46.16,0,1,0-46.16-46.16A46.21,46.21,0,0,0,293.47,324.49Zm-.28-72.41,24.61,28.63H301.47l-.11,27.36H284.91l.17-27.28-15.64.08Z"/></svg>