<svg xmlns="http://www.w3.org/2000/svg" viewBox="0 0 576 576"><defs><style>.cls-1{fill:#2c7aab;}</style></defs><title>Artboard 18</title><g id="tutorial-export"><rect class="cls-1" x="60.34" y="254.4" width="9.98" height="14.42" transform="translate(-196.28 326.94) rotate(-90)"/><rect class="cls-1" x="60.34" y="282.27" width="9.98" height="14.42" transform="translate(-224.15 354.81) rotate(-90)"/><rect class="cls-1" x="60.34" y="308.94" width="9.98" height="14.42" transform="translate(-250.82 381.48) rotate(-90)"/><rect class="cls-1" x="153.14" y="254.4" width="9.98" height="14.42" transform="translate(-103.48 419.74) rotate(-90)"/><rect class="cls-1" x="154.25" y="282.27" width="9.98" height="14.42" transform="translate(-130.24 448.72) rotate(-90)"/><rect class="cls-1" x="154.25" y="308.94" width="9.98" height="14.42" transform="translate(-156.92 475.39) rotate(-90)"/><rect class="cls-1" x="80.12" y="258.71" width="63.72" height="60.75" transform="translate(-177.1 401.07) rotate(-90)"/><ellipse class="cls-1" cx="409.35" cy="402.88" rx="12.41" ry="13.42"/><rect class="cls-1" x="355.44" y="200.62" width="109.86" height="168.82" rx="18.34" ry="18.34"/><path class="cls-1" d="M287.49,20.17C139.58,20.17,19.67,140.08,19.67,288S139.58,555.83,287.49,555.83,555.32,435.92,555.32,288,435.41,20.17,287.49,20.17ZM174.57,334.29H49.17V243.22H174.57ZM124.19,222.06a1,1,0,0,1-1.86-.84c58.56-139,195.3-90,195.3-90l20-26.17,12.05,62.85-59,6.5s16.88-24.9,16.6-25C194.86,118.41,140.49,193.24,124.19,222.06Zm331,201.41H366.9A27.88,27.88,0,0,1,339,395.6V199.84A27.88,27.88,0,0,1,366.9,172h88.25A27.88,27.88,0,0,1,483,199.84V395.6A27.88,27.88,0,0,1,455.14,423.47Z"/></g></svg>