<svg xmlns="http://www.w3.org/2000/svg" viewBox="0 0 576 576"><defs><style>.cls-1{fill:none;}.cls-2{fill:#2c7aab;}</style></defs><title>Artboard 17</title><g id="tutorial-save"><path class="cls-1" d="M182.08,316.88a8.55,8.55,0,0,1,8.54-8.54H275.1l26.54-30h-111a38.58,38.58,0,0,0-38.54,38.54v8.87l30,15.41Z"/><path class="cls-1" d="M320.31,316.88V438a8.55,8.55,0,0,1-8.54,8.54H190.62a8.55,8.55,0,0,1-8.54-8.54V378.37l-30-37.69V438a38.58,38.58,0,0,0,38.54,38.54H311.78A38.58,38.58,0,0,0,350.31,438V316.88A38.51,38.51,0,0,0,334,285.42l-16.64,25A8.52,8.52,0,0,1,320.31,316.88Z"/><path class="cls-2" d="M182.08,316.88v24.27l44,22.6,49-55.41H190.62A8.55,8.55,0,0,0,182.08,316.88Z"/><path class="cls-2" d="M182.08,378.37V438a8.55,8.55,0,0,0,8.54,8.54H311.78a8.55,8.55,0,0,0,8.54-8.54V316.88a8.52,8.52,0,0,0-3-6.44l-86.2,129.61Z"/><path class="cls-2" d="M288.81,20.17C140.89,20.17,21,140.08,21,288S140.89,555.83,288.81,555.83,556.64,435.92,556.64,288,436.73,20.17,288.81,20.17Zm61.51,296.71V438a38.58,38.58,0,0,1-38.54,38.54H190.62A38.58,38.58,0,0,1,152.08,438V340.68L132,315.42l20.1,10.32v-8.87a38.58,38.58,0,0,1,38.54-38.54h111L451,109.5,334,285.42A38.51,38.51,0,0,1,350.31,316.88Z"/></g></svg>